/* XPM */
static char *_____________[] = {
/* columns rows colors chars-per-pixel */
"40 40 97 2",
"   c #EB4A2A",
".  c #EA4B2A",
"X  c #EB4B2A",
"o  c #EB4C2B",
"O  c #EB4C2C",
"+  c #EB4D2C",
"@  c #EB4D2D",
"#  c #EB4E2D",
"$  c #EB5030",
"%  c #EB5031",
"&  c #EB5131",
"*  c #EB5233",
"=  c #EB5333",
"-  c #EB5334",
";  c #EB5435",
":  c #EB5536",
">  c #EB5537",
",  c #EB5738",
"<  c #EC5638",
"1  c #EC5739",
"2  c #E9583A",
"3  c #EA583A",
"4  c #EB583A",
"5  c #EC5839",
"6  c #EC583A",
"7  c #EC593A",
"8  c #EC593B",
"9  c #EC593C",
"0  c #EC5A3C",
"q  c #EC5A3D",
"w  c #EC5B3D",
"e  c #EC5B3E",
"r  c #EC5C3E",
"t  c #EC5F42",
"y  c #EC6044",
"u  c #EC6144",
"i  c #EC6145",
"p  c #EC6246",
"a  c #ED694E",
"s  c #ED6A4F",
"d  c #ED6B51",
"f  c #ED6C52",
"g  c #F08A75",
"h  c #F08B76",
"j  c #F08F7B",
"k  c #F08F7C",
"l  c #F1937F",
"z  c #F19380",
"x  c #F19481",
"c  c #F19482",
"v  c #F19987",
"b  c #F19B8A",
"n  c #F19C8A",
"m  c #F29F8E",
"M  c #F2A291",
"N  c #F2A393",
"B  c #F2A494",
"V  c #F2A595",
"C  c #F2A697",
"Z  c #F7D7D0",
"A  c #F7DAD3",
"S  c #F7DCD6",
"D  c #F7DDD7",
"F  c #F7DED8",
"G  c #F7DFDA",
"H  c #F7E0DB",
"J  c #F7E1DD",
"K  c #F8E5E1",
"L  c #F8E6E2",
"P  c #F8E6E3",
"I  c #F8E7E3",
"U  c #F8E8E4",
"Y  c #F8E8E5",
"T  c #F8E9E5",
"R  c #F8E9E6",
"E  c #F9F6F5",
"W  c #F9F6F6",
"Q  c #F9F7F6",
"!  c #F9F8F8",
"~  c #F9F9F8",
"^  c #F9F9F9",
"/  c #FAF9F9",
"(  c #F9FAF9",
")  c #FAFAF9",
"_  c #F9FAFA",
"`  c #FAFAFA",
"'  c #FAFBFA",
"]  c #FAFBFB",
"[  c #FAFCFB",
"{  c #FAFCFC",
"}  c #FAFDFC",
"|  c #FAFDFD",
" . c #FAFDFE",
".. c #FAFEFE",
"X. c #FAFEFF",
"o. c #FAFFFF",
"O. c None",
/* pixels */
"O.O.O.O.O.O.O.O.O.O.O.O.O.O.O.O.O.O.O.O.O.O.O.O.O.O.O.O.O.O.O.O.O.O.O.O.O.O.O.O.",
"O.O.O.O.4 4 6 6 6 6 6 6 6 6 6 6 6 6 6 6 6 6 6 6 6 6 6 6 6 6 6 6 6 6 4 4 O.O.O.O.",
"O.O.O.4 6 6 6 6 6 6 6 6 6 6 6 6 6 6 6 6 6 6 6 6 6 6 6 6 6 6 6 6 6 6 6 6 6 O.O.O.",
"O.O.4 6 4 6 6 6 6 6 6 6 6 6 6 6 6 6 6 6 6 6 6 6 6 6 6 6 6 6 6 6 6 6 6 4 6 6 O.O.",
"O.4 6 6 6 6 6 6 6 6 6 6 6 6 6 6 6 6 6 6 6 6 6 6 6 6 6 1 6 6 6 6 6 6 6 6 6 6 4 O.",
"O.6 6 6 6 6 6 6 6 6 6 6 6 6 6 6 6 6 6 6 6 6 6 6 6 6 6 6 6 6 6 6 6 6 6 6 6 6 6 O.",
"O.6 6 6 6 6 6 6 6 6 6 w 6 6 6 6 6 6 6 6 6 6 6 6 6 6 w 1 w 1 6 6 6 6 6 6 6 6 , 9 ",
"O.6 6 6 6 6 6 6 6 1 w ; r , w 4 6 6 6 6 6 6 6 6 1 w ; w - w 6 6 6 6 6 6 6 6 9 , ",
"O.6 6 6 6 6 6 6 6 w * i J B . w 1 1 w 1 6 6 1 1 w O x Y f $ w 6 1 1 w 1 w 1 , 9 ",
"O.6 6 6 6 6 6 6 w - i G o.o.m o w w 1 1 6 6 6 w O k ! o.T d $ w 1 w 1 1 1 1 9 , ",
"O.6 6 6 6 6 6 w * i H o.Q ! o.m O w w 1 6 6 w O j ! { Q o.T d $ w 1 1 1 w 1 w 9 ",
"O.6 6 6 6 1 w ; i G o.Q ! ! ! o.m O w 1 w w X j o.! ! ! Q o.T d - w 1 w 1 1 1 , ",
"O.6 6 6 6 6 6 6 A o.Q ! ! [ ! ! o.m O w w O j o.! ! ! ! ! ! o.I t 1 w 1 , 9 , 9 ",
"O.6 6 6 6 6 6 ; x [ ! Q { ! [ ! ! o.m O . l o.! ! [ ! [ ! ! o.V , 1 1 1 9 , 9 , ",
"O.6 6 6 6 6 6 w . j o.! ! ! ! ! [ ! o.v h o.! ! ! [ ! ! ! o.M X 1 w w 1 , 9 , 9 ",
"O.6 6 6 6 6 6 6 w O j o.! ! [ ! ! ! ! ! Q o.! [ ! ! ! ! o.M o w w 1 1 1 9 , 9 , ",
"O.1 w 1 w 1 w 1 6 w o j o.! ! ! ! ! [ ! ^ ~ ^ ^ ^ ~ ! o.M o w 4 1 1 w 1 w 1 , 9 ",
"O.1 1 1 1 1 1 1 6 6 w O j o.[ ! [ ! ! ! ^ ^ ^ ^ ~ ~ o.M o w 6 4 1 w 1 1 1 1 9 , ",
"O.w w 1 1 1 w 1 6 6 6 r o j o.' ! ! [ ! ^ ^ ^ ^ ! o.M o w w 6 6 1 1 1 1 w 1 w 9 ",
"O.1 1 1 1 w 1 1 6 6 6 6 r O h ! ! [ ! ! ^ ^ ^ ~ o.n o w 6 6 6 6 1 w 1 w 1 1 1 , ",
"O.6 6 6 w 1 1 1 6 6 6 6 w O g ! o.^ ^ ^ ^ ^ ^ ^ o.v O w 6 6 6 6 1 1 w 1 , 9 , 9 ",
"O.6 6 6 1 1 1 w 6 6 w w O k o.! ^ ^ ^ ^ ^ ^ ^ ^ ! o.m O r 6 6 6 1 w 1 1 9 , 9 , ",
"O.6 6 6 w 1 w 1 1 1 w O j [ o.! ^ ^ ^ ^ ^ ^ ^ ^ ! ! o.m O w w 6 1 1 1 9 , 9 , 9 ",
"O.6 6 6 1 1 1 1 9 w O k o.! ! ! ^ ^ ^ ^ ^ ^ ^ ^ ! ! ! o.m o r 6 1 w 1 1 9 , 9 , ",
"O.6 6 6 6 6 6 6 w O k o.' Q ! ! ! ! ' ' ! o.! ! ! [ ^ ^ o.m o w w 1 1 1 1 1 , 9 ",
"O.6 6 6 6 6 1 w X k o.! ! ! ! [ ! ! o.b g o.[ ! ! ! ^ ^ ~ o.m . 1 w 1 w 1 w 9 , ",
"O.6 6 6 1 1 w - x ' ' ! ! ! [ ! ! o.M O o j ! ! ! ! ! ^ ! ! o.M , 1 w 1 1 1 1 , ",
"O.6 6 6 6 w 1 1 Z o.Q ! ! ! ! ! o.M o w r o j o.o.Q [ ^ ! Q o.L t , 6 1 1 w 1 w ",
"O.6 6 6 6 6 w > i D o.Q ! ! ! o.M o w 6 6 w O j o.! ! ! Q o.R a - w 1 1 6 6 4 4 ",
"O.6 6 6 6 6 1 w $ i F o.Q ! o.M o w w 6 6 6 w O l o.! Q o.R a $ w 6 1 w 6 6 6 4 ",
"O.6 6 6 6 6 1 1 r - i D o.o.M o w 6 6 6 6 6 6 r . j ! o.Y a * w 6 6 6 6 6 6 6 4 ",
"O.6 6 6 6 6 6 6 6 r $ i H V X r 6 6 6 6 6 6 6 1 w X l L d $ w , 6 6 6 6 6 6 4 4 ",
"O.6 6 6 6 6 6 6 6 6 w - w ; w 1 6 6 6 6 6 6 6 6 6 w - w - w 1 6 6 6 6 6 6 6 6 4 ",
"O.6 6 6 6 6 6 6 6 6 1 w 6 w w 1 6 6 6 6 6 6 6 6 6 6 w 1 w 6 6 6 6 6 6 6 6 6 6 4 ",
"O.6 6 6 6 6 6 6 6 6 6 6 w 6 1 1 6 6 6 6 6 6 6 6 6 6 1 6 6 6 6 6 6 6 6 6 6 6 6 O.",
"O.4 6 6 6 6 6 6 6 6 6 6 1 6 6 6 6 6 6 6 6 6 6 6 6 6 6 6 6 6 6 6 6 6 6 6 6 6 4 O.",
"O.O.4 6 6 6 6 6 6 6 6 6 6 6 6 6 6 6 6 6 6 6 6 6 6 6 6 6 6 6 6 6 6 6 6 4 6 6 O.O.",
"O.O.O.4 6 6 6 6 6 6 6 6 6 6 6 6 6 6 6 6 6 6 6 6 6 6 6 6 6 6 6 6 6 6 6 4 6 O.O.O.",
"O.O.O.O.4 4 6 6 6 6 6 6 6 6 6 6 6 6 6 6 6 6 6 6 6 6 6 6 6 6 6 6 6 6 6 4 O.O.O.O.",
"O.O.O.O.O.O.O.O.O.O.O.O.O.O.O.O.O.O.O.O.O.O.O.O.O.O.O.O.O.O.O.O.O.O.O.O.O.O.O.O."
};
