/* XPM */
static char *_____________[] = {
/* columns rows colors chars-per-pixel */
"36 12 209 2",
"   c #ACB2B7",
".  c #96999C",
"X  c #ADAFB1",
"o  c #B0B2B3",
"O  c #AFB1B3",
"+  c #B0B1B3",
"@  c #AFB1B2",
"#  c #AFB0B2",
"$  c #B0B2B4",
"%  c #949699",
"&  c #6B6F73",
"*  c #707478",
"=  c #707578",
"-  c #6F7477",
";  c #6F7478",
":  c #6E7276",
">  c #717579",
",  c #707477",
"<  c #84898C",
"1  c #B3B8BD",
"2  c #9A9EA1",
"3  c #D7D7D7",
"4  c #F2F2F1",
"5  c #EFEFEF",
"6  c #F0EFEF",
"7  c #EFEFEE",
"8  c #ABAEB1",
"9  c #7F858A",
"0  c #888D92",
"q  c #858B8F",
"w  c #868B90",
"e  c #858A8F",
"r  c #868C90",
"t  c #888D91",
"y  c #7C8084",
"u  c #8D9295",
"i  c #B5B7B9",
"p  c #ECEBEB",
"a  c #E2E2E2",
"s  c #E4E4E4",
"d  c #E3E4E4",
"f  c #E3E3E3",
"g  c #E9E9E9",
"h  c #D4D4D5",
"j  c #878C91",
"k  c #8F9599",
"l  c #8D9296",
"z  c #8D9297",
"x  c #8F9498",
"c  c #909599",
"v  c #8C9296",
"b  c #8E9398",
"n  c #8E9498",
"m  c #8F9499",
"M  c #8D9397",
"N  c #8B9093",
"B  c #B8BABB",
"V  c #E2E2E1",
"C  c #DEDEDE",
"Z  c #DFDFDF",
"A  c #E0E0E0",
"S  c #CDCECE",
"D  c #92979C",
"F  c #91969B",
"G  c #90959A",
"H  c #8C9196",
"J  c #91979B",
"K  c #898E92",
"L  c #92979B",
"P  c #93989C",
"I  c #B3B5B7",
"U  c #DADADA",
"Y  c #D6D7D7",
"T  c #D8D8D8",
"R  c #D6D6D6",
"E  c #DBDADA",
"W  c #C7C7C8",
"Q  c #8B8F94",
"!  c #969B9F",
"~  c #94999E",
"^  c #979CA0",
"/  c #8A8F93",
"(  c #7D8184",
")  c #808487",
"_  c #7F8387",
"`  c #959A9E",
"'  c #7F8487",
"]  c #84888B",
"[  c #83888B",
"{  c #7E8286",
"}  c #D1D1D1",
"|  c #CFCFCF",
" . c #D0D0D0",
".. c #D2D2D2",
"X. c #C0C1C1",
"o. c #9A9FA4",
"O. c #989DA1",
"+. c #9BA0A4",
"@. c #868A8E",
"#. c #94989C",
"$. c #9FA4A8",
"%. c #878B8F",
"&. c #898D91",
"*. c #868A8D",
"=. c #8D9195",
"-. c #959A9F",
";. c #9BA0A3",
":. c #999EA3",
">. c #9A9FA3",
",. c #ACAEAF",
"<. c #C9C9C8",
"1. c #C7C7C7",
"2. c #C6C6C6",
"3. c #CACACA",
"4. c #B9BABA",
"5. c #909498",
"6. c #9CA2A6",
"7. c #9DA2A6",
"8. c #9A9EA2",
"9. c #919599",
"0. c #979B9F",
"q. c #92969A",
"w. c #9EA3A7",
"e. c #A7A9AA",
"r. c #C0C0C0",
"t. c #BFBFBF",
"y. c #BDBDBD",
"u. c #BCBCBC",
"i. c #BEBEBE",
"p. c #C1C1C1",
"a. c #B2B3B3",
"s. c #A0A5A9",
"d. c #9DA2A5",
"f. c #989CA0",
"g. c #999EA1",
"h. c #989DA0",
"j. c #A0A4A8",
"k. c #999EA2",
"l. c #A1A6AA",
"z. c #A2A6AA",
"x. c #A2A7AA",
"c. c #A1A5A9",
"v. c #A2A4A5",
"b. c #B8B7B7",
"n. c #B7B7B7",
"m. c #B8B8B8",
"M. c #B4B4B4",
"N. c #B2B2B2",
"B. c #B3B3B3",
"V. c #B9B9B9",
"C. c #ACACAC",
"Z. c #A3A7AB",
"A. c #A3A7AC",
"S. c #A5A9AD",
"D. c #A4A8AC",
"F. c #A6AAAE",
"G. c #A3A8AC",
"H. c #A5AAAD",
"J. c #9EA0A1",
"K. c #B2B1B1",
"L. c #B0B0B0",
"P. c #B3B3B2",
"I. c #A6A6A7",
"U. c #8F9397",
"Y. c #A5AAAE",
"T. c #A6ABAF",
"R. c #A7ACB0",
"E. c #A7ACAF",
"W. c #A7ABAF",
"Q. c #A0A3A6",
"!. c #A1A1A1",
"~. c #ABAAAA",
"^. c #ABABAA",
"/. c #ABABAB",
"(. c #AAAAAA",
"). c #ACACAB",
"_. c #8E8F91",
"`. c #8D9194",
"'. c #A6ABAE",
"]. c #A8ACB0",
"[. c #A8ADB0",
"{. c #A9ADB0",
"}. c #A9ADB1",
"|. c #B1B6BA",
" X c #B5BABF",
".X c #9FA2A5",
"XX c #9D9E9F",
"oX c #9E9FA1",
"OX c #9FA0A2",
"+X c #9FA1A2",
"@X c #A1A2A4",
"#X c #A2A3A4",
"$X c #A1A3A4",
"%X c #A1A2A3",
"&X c #A0A2A3",
"*X c #9E9FA0",
"=X c #929496",
"-X c #878B8D",
";X c #9EA2A5",
":X c #AFB3B6",
">X c #B0B4B7",
",X c #AEB3B6",
"<X c #AFB3B7",
"1X c #AEB2B6",
"2X c #AFB4B7",
"3X c #B1B5B8",
"4X c #B6BABE",
"5X c #B8BEC3",
"6X c #FFFFFF",
/* pixels */
"  . X o O O + + @ @ o @ O # @ $ % & * = * - * - ; * : * * * * * > , < 1 ",
"2 3 4 5 5 6 6 6 6 6 6 6 6 6 5 5 7 8 9 0 q q q w w q e q w r w w q t y u ",
"i p a s s d s f f f f s d s s a g h j k l z z x c z v b k n m M z M c N ",
"B V C C C C C Z A A A Z Z Z Z C a S t D F G D H t G J z K c K z G k L P ",
"I U Y 3 3 3 3 T T T T 3 T 3 3 R E W Q ! ~ ^ / ( ) _ ` ' ] [ { G ` ! ! ^ ",
"o } | | | | |  . . . .| | | | | ..X.l o.O.+.@.#.$.%.&.*.=.@.&.-.o.;.:.>.",
",.<.1.1.1.1.1.1.2.1.1.1.1.1.1.2.3.4.5.$.6.7.5.8.$.9.0.9.>.q.! w.7.w.w.7.",
"e.r.t.t.t.t.t.y.u.u.u.t.t.t.t.i.p.a.9.s.s.s.d.f.g.2 s.h.j.k.d.l.l.z.x.c.",
"v.b.n.n.n.n.m.M.N.B.N.n.n.m.n.n.V.C.9.Z.Z.A.S.S.D.F.A.G.Z.G.G.G.S.S.H.Z.",
"J.K.L.L.L.L.L.L.L.L.L.L.L.L.L.L.P.I.U.Y.T.F.F.R.E.T.Y.T.Y.Y.F.W.E.R.E.S.",
"Q.!.C.~.^.~./.^.~.(.^.(././././.)._.`.'.].].].[.[.].].].[.T.].{.}.}.{.|.",
" X.XXXoXOX+X@X#X$X$X#X%X&X+XoX*X=X-X;X:X>X,X<X>X>X<X1X<X<X,X<X2X<X3X4X5X"
};
