/* XPM */
static char *_____________[] = {
/* columns rows colors chars-per-pixel */
"36 12 213 2",
"   c #B2B7BC",
".  c #84888C",
"X  c #707477",
"o  c #707478",
"O  c #717578",
"+  c #707578",
"@  c #6F7377",
"#  c #6F7477",
"$  c #717579",
"%  c #6D7175",
"&  c #949799",
"*  c #B1B3B4",
"=  c #AFB1B2",
"-  c #B0B2B3",
";  c #B0B1B3",
":  c #AFB1B3",
">  c #ADAFB0",
",  c #96999D",
"<  c #ACB2B7",
"1  c #8B9094",
"2  c #7A7F83",
"3  c #878C91",
"4  c #858B8F",
"5  c #868B8F",
"6  c #878C90",
"7  c #868C90",
"8  c #868B90",
"9  c #878D91",
"0  c #888D91",
"q  c #81878B",
"w  c #AEB1B3",
"e  c #EFEEEE",
"r  c #EFEFEF",
"t  c #F0EFEF",
"y  c #F2F2F1",
"u  c #D7D7D7",
"i  c #999CA0",
"p  c #898E92",
"a  c #8F9498",
"s  c #8E9498",
"d  c #8E9397",
"f  c #8B9095",
"g  c #8C9195",
"h  c #8D9397",
"j  c #8E9398",
"k  c #8A8F94",
"l  c #D5D6D6",
"z  c #E8E8E8",
"x  c #E3E3E3",
"c  c #E4E4E4",
"v  c #E3E4E4",
"b  c #E2E2E2",
"n  c #ECECEB",
"m  c #B4B6B7",
"M  c #92969B",
"N  c #91969A",
"B  c #91969B",
"V  c #92979B",
"C  c #9EA3A7",
"Z  c #9EA2A6",
"A  c #90959A",
"S  c #8F9599",
"D  c #8D9297",
"F  c #CFCFD0",
"G  c #E2E1E1",
"H  c #DEDEDE",
"J  c #DFDFDF",
"K  c #E0E0E0",
"L  c #959A9E",
"P  c #959B9F",
"I  c #969B9F",
"U  c #BBBDBF",
"Y  c #C8C9C9",
"T  c #C9CACA",
"R  c #B8BBBD",
"E  c #90969A",
"W  c #93999D",
"Q  c #94999D",
"!  c #94999E",
"~  c #909599",
"^  c #C8C9CA",
"/  c #DADADA",
"(  c #D8D8D8",
")  c #D6D6D6",
"_  c #DBDBDB",
"`  c #9A9EA2",
"'  c #9BA0A4",
"]  c #9A9FA3",
"[  c #989DA1",
"{  c #A0A5A8",
"}  c #D2D2D2",
"|  c #93969A",
" . c #969A9D",
".. c #CECFCF",
"X. c #BABCBE",
"o. c #BFC1C2",
"O. c #C5C6C7",
"+. c #A3A7AB",
"@. c #999EA2",
"#. c #93989C",
"$. c #C2C3C4",
"%. c #D1D1D1",
"&. c #CFCFCF",
"*. c #D0D0D0",
"=. c #ACAEAF",
"-. c #9DA2A6",
";. c #A4A8AB",
":. c #C7C7C8",
">. c #9CA1A5",
",. c #9FA4A8",
"<. c #C3C3C4",
"1. c #C3C4C4",
"2. c #A9ABAD",
"3. c #B7B8B9",
"4. c #B4B6B8",
"5. c #999FA3",
"6. c #BBBCBD",
"7. c #C9C9C9",
"8. c #C7C7C7",
"9. c #C6C6C6",
"0. c #A8AAAB",
"q. c #A0A4A8",
"w. c #A1A6AA",
"e. c #A1A5A9",
"r. c #A2A6AA",
"t. c #9CA0A4",
"y. c #B7B7B7",
"u. c #BABBBD",
"i. c #BBBDBE",
"p. c #B1B2B3",
"a. c #B4B5B5",
"s. c #ABAEB0",
"d. c #B0B2B4",
"f. c #989DA0",
"g. c #C1C1C1",
"h. c #BEBFBF",
"j. c #BFBFBF",
"k. c #BDBDBD",
"l. c #BCBCBC",
"z. c #BEBEBE",
"x. c #C1C1C0",
"c. c #A4A6A7",
"v. c #A3A8AC",
"b. c #A3A7AC",
"n. c #A4A9AD",
"m. c #989C9F",
"M. c #A1A3A4",
"N. c #999DA0",
"B. c #9FA1A4",
"V. c #A0A3A6",
"C. c #9FA2A4",
"Z. c #A0A3A5",
"A. c #A5AAAD",
"S. c #A5A9AD",
"D. c #A4A8AC",
"F. c #999DA1",
"G. c #ADAEAE",
"H. c #B8B8B8",
"J. c #B2B2B2",
"K. c #B3B3B3",
"L. c #A0A1A2",
"P. c #A5AAAE",
"I. c #A6AAAE",
"U. c #A8ACB0",
"Y. c #A9ADB1",
"T. c #A7ACB0",
"R. c #A7ACAF",
"E. c #A8A8A8",
"W. c #B0B0B0",
"Q. c #B0B0B1",
"!. c #9A9B9D",
"~. c #B0B5B9",
"^. c #A7ABB0",
"/. c #A7ABAF",
"(. c #A9AEB1",
"). c #ABAFB2",
"_. c #A9ADB0",
"`. c #AAAEB2",
"'. c #AAAEB1",
"]. c #A8ADB0",
"[. c #969A9E",
"{. c #919394",
"}. c #ABABAA",
"|. c #ABABAB",
" X c #ABAAAA",
".X c #AAAAAA",
"XX c #ADACAC",
"oX c #A1A1A1",
"OX c #9DA0A3",
"+X c #B7BCC1",
"@X c #B5B9BD",
"#X c #AEB2B6",
"$X c #B0B4B7",
"%X c #AFB3B7",
"&X c #B1B5B8",
"*X c #B0B5B8",
"=X c #B0B4B8",
"-X c #8B8E91",
";X c #949697",
":X c #9E9FA0",
">X c #9FA0A1",
",X c #9FA1A2",
"<X c #A0A2A3",
"1X c #A2A3A4",
"2X c #A2A3A5",
"3X c #A1A2A3",
"4X c #A0A1A3",
"5X c #9FA0A2",
"6X c #9E9FA1",
"7X c #9B9D9E",
"8X c #9EA1A3",
"9X c #B4BABE",
"0X c #FFFFFF",
/* pixels */
"  . X o O + o o @ # + O $ X o o + o % & * = - ; : ; = = ; ; ; = * > , < ",
"1 2 3 4 5 6 7 3 7 4 6 6 6 8 6 9 0 q w e r r r t t t t t t t t t r y u i ",
"p a s d d s f g s d h d a j h d d k l z x c c c c x x x x c v c v b n m ",
"M N B V N j C Z h V N B V B A S V D F G H H J H H K K K K H J J H H b m ",
"L P I I V U Y T R E W L Q L L ! I ~ ^ / u u u u u ( ( ( ( u u u u ) _ - ",
"` ' ] [ { } |  ...X.o.O.+.[ @.] ] #.$.%.&.&.&.&.&.*.*.*.*.&.*.&.&.&.} =.",
"Z C C -.;.:.>.,.<.1.2.3.4.5.C Z C I 6.7.8.8.8.8.8.8.9.8.8.8.8.8.8.9.7.0.",
"q.w.e.r.t.y.u.i.p.a.s.m d.C w.e.w.f.a.g.h.j.j.j.j.k.l.l.k.j.j.j.j.z.x.c.",
"r.v.b.b.n.m.M.M.N.B.V.C.Z.A.S.D.S.F.G.H.y.y.y.y.y.J.K.J.K.H.y.H.y.y.H.L.",
"n.P.P.P.I.U.w.r.Y.S.P.S.I.U.T.R.U.m.E.J.W.W.W.W.W.W.W.W.W.W.W.W.Q.W.J.!.",
"~.R.^./.U.T.(.)._.).`.'.(.Y.].Y.`.[.{.}.|.}.}. X|.}..X.X X.X|.|.|.XXoXOX",
"+X@X#X#X$X#X%X&X*X=X*X$X$X$X%X%X$XD.-X;X:X>X,X<X1X2X1X2XM.3X4X5X6X7X8X9X"
};
